<svg xmlns="http://www.w3.org/2000/svg" width="64" height="64" viewBox="0 0 64 64">
  <rect width="64" height="64" rx="14" fill="#09073A"></rect>
  <g transform="translate(19.14 11.00) scale(0.06954)">
    <path d="M259.362 602.497C254.696 604.987 233.481 604.299 215.259 601.056C203.071 598.894 196.605 592.872 187.714 575.409C173.949 548.361 165.09 538.952 130.03 514.162C121.443 508.093 111.223 501.015 107.302 498.436C103.389 495.858 95.8262 490.365 90.4964 486.226C70.2815 470.516 66.6323 465.471 66.1601 452.556C65.904 445.565 66.6323 439.72 70.6897 416.123C71.554 411.055 72.5143 402.415 72.8104 396.906C73.3386 387.121 73.2985 386.753 70.9537 380.435C65.5919 365.991 57.4131 351.49 43.5764 331.904C34.1972 318.636 29.3876 308.636 27.9471 299.419C27.3149 295.344 26.2905 288.77 25.6743 284.814C24.0658 274.509 21.2648 269.184 12.4058 259.584C7.52412 254.291 4.163 249.815 2.49843 246.372C0.057601 241.32 -0.0144441 240.855 0.00156132 230.358C0.0175668 220.741 0.225642 219.084 1.90621 215.329C4.4991 209.539 7.50814 207.137 12.1737 207.137C15.4068 207.137 16.1991 207.514 18.864 210.316C20.5206 212.062 24.1618 217.338 26.9387 222.047C32.8848 232.095 37.5344 237.068 43.6004 239.862C49.7145 242.681 53.4758 242.441 71.2738 238.093C97.6588 231.655 122.883 228.949 148.14 229.861C168.363 230.59 176.982 231.687 190.811 235.306C209.377 240.151 213.05 240.863 220.061 240.983C227.575 241.111 231.576 239.47 235.57 234.634C239.595 229.741 240.652 225.602 241.068 213.095C241.756 192.284 238.299 180.281 229.808 173.98C227.879 172.554 226.407 172.306 219.804 172.306H212.058L199.253 177.831C173.445 188.961 163.937 191.491 149.941 190.939C140.209 190.562 135.192 188.689 129.774 183.404C122.435 176.246 122.739 172.755 131.422 164.515C148.916 147.893 153.006 143.785 157.567 138.276C166.274 127.771 167.603 125.409 171.668 113.15C178.67 92.0348 182.048 87.5989 196.645 80.3844C208.593 74.4752 210.473 72.3293 210.425 64.6665C210.401 61.3435 209.705 57.38 208.521 53.8969C206.904 49.1086 206.704 47.323 207.056 40.2848C207.384 33.5828 207.952 30.8203 210.345 24.3025C217.58 4.61303 224.454 -2.61741 232.681 0.825654C236.282 2.33099 237.771 5.14149 238.947 12.6842C240.315 21.3879 239.363 45.4494 237.29 54.5615C235.37 63.033 235.29 65.3551 236.786 68.9503C237.915 71.6407 243.341 78.2225 244.437 78.2225C244.757 78.2225 246.005 76.4049 247.214 74.1869C250.207 68.678 257.665 59.4298 262.931 54.6976C276.072 42.8791 293.101 35.5526 307.69 35.4405C313.901 35.3924 315.701 35.6647 317.534 36.9058C320.311 38.7874 321.983 41.9182 322.591 46.3782C323.6 53.8168 316.637 66.7003 305.418 78.1344C298.071 85.6211 294.878 87.6629 285.355 90.9699C277.856 93.5802 277.16 94.5971 279.545 99.5215C283.178 106.984 287.884 111.38 303.689 122.022C314.429 129.26 319.919 136.25 336.908 164.299C356.139 196.055 366.038 224.232 369.391 256.717C370.624 268.704 369.88 296.593 368.103 304.824C366.406 312.679 360.676 327.132 355.099 337.653C352.642 342.281 347.352 352.37 343.343 360.073C331.923 382.021 324.856 391.749 299.36 420.623C275.567 447.583 259.026 472.373 246.854 499.309C244.141 505.299 238.899 516.517 235.21 524.219C228.359 538.512 226.919 542.788 226.879 548.889C226.831 558.37 231.104 564.455 243.861 573.055C252.576 578.932 257.449 583.4 260.178 588.012C264.46 595.251 264.196 599.911 259.362 602.497ZM174.813 516.717L189.586 532.106L191.147 529.56C196.076 521.537 237.306 435.148 240.291 426.58C242.06 421.488 242.404 419.11 242.436 411.663C242.468 403.296 242.34 402.607 240.259 399.46C236.554 393.855 232.217 391.693 212.626 385.72C198.365 381.364 186.705 379.306 176.35 379.298C163.545 379.29 161.793 380.011 152.598 389.123C139.529 402.079 130.094 415.963 123.092 432.538C118.01 444.556 117.538 450.53 121.067 458.073C123.132 462.484 126.373 466.272 141.778 482.318C151.821 492.775 166.69 508.253 174.813 516.717Z" fill="#03CCD9"></path>
  </g>
</svg>