<svg width="740" height="512" viewBox="0 0 740 512" fill="none" xmlns="http://www.w3.org/2000/svg">
<path d="M391.854 226.995C387.088 225.519 376.226 221.701 371.248 224.267C366.039 228.623 361.959 234.182 359.36 240.467C356.242 247.379 359.447 249.774 364.226 254.749C369.579 260.321 374.929 265.896 380.278 271.472C384.528 263.508 388.238 255.197 392.147 247.058C394.902 241.325 401.611 230.015 391.854 226.995Z" fill="white"></path>
<path d="M670.247 63.1351C667.645 60.4194 665.221 57.5377 662.99 54.508C659.802 51.5226 656.399 48.7786 652.806 46.2987C649.636 44.2565 646.712 41.8522 644.093 39.1338C641.595 35.9776 641.876 32.2415 639.447 29.1379C633.678 23.4208 626.745 19.0227 619.124 16.2445C615.745 15.3843 612.577 13.8402 609.814 11.7071C607.101 8.84674 607.077 5.38518 603.195 3.02947C597.931 -0.165459 590.257 -1.82509 585.55 3.15428C583.017 5.83326 583.747 10.8991 581.395 13.1883C579.017 15.5028 572.947 14.4528 569.649 15.372C552.018 20.7517 535.042 28.091 519.035 37.2534C510.927 41.6966 501.719 43.712 492.504 43.0605C483.538 42.0608 474.486 43.9014 466.615 48.3245C460.266 51.9257 453.212 60.79 445.833 61.1795C437.264 61.6319 428.055 58.3013 419.245 58.2813C400.382 58.2384 381.634 58.3739 362.78 58.5702C345.401 58.7512 325.912 57.0393 310.438 66.3829C296.364 74.8815 282.713 83.0975 269.571 92.8691C262.795 97.9076 258.4 105.646 251.569 110.906C244.779 116.258 238.626 122.377 233.233 129.143C227.978 134.711 222.421 139.985 216.587 144.94C210.028 151.337 205.704 159.705 199.554 166.453C194.12 172.416 186.845 175.871 181.071 181.374C174.349 188.434 166.833 194.687 158.673 200.006C145.039 208.535 130.71 215.889 115.838 221.988C96.9706 229.346 77.751 225.723 58.3914 225.169C42.7185 224.72 28.8425 217.562 13.5381 214.96C11.8874 214.631 10.1821 214.704 8.56523 215.172C6.94833 215.641 5.46687 216.492 4.24496 217.653C3.02305 218.814 2.09627 220.253 1.54226 221.848C0.988256 223.442 0.823156 225.147 1.06079 226.819C2.68797 236.275 15.4442 238.387 22.8455 241.278C33.3829 245.014 44.488 246.88 55.6634 246.794C65.5779 247.245 76.518 250.176 86.3193 248.006C96.067 245.848 105.754 242.67 115.548 240.413C120.039 239.378 124.762 239.094 129.174 238.059C133.521 236.504 137.761 234.662 141.866 232.545C159.52 225.674 173.549 214.348 188.801 203.632C196.216 198.789 203.212 193.328 209.716 187.308C216.162 180.858 221.642 174.019 228.466 167.715C233.655 178.157 240.909 187.43 249.785 194.967C259.659 201.14 270.271 206.037 281.368 209.54C286.207 210.727 290.682 213.087 294.401 216.413C299.082 221.866 297.54 229.454 297.566 236.066C297.605 245.861 294.813 262.34 300.807 270.279C303.395 273.503 306.78 275.99 310.625 277.491C315.875 280.066 319.437 285.466 324.636 287.738C329.137 289.129 333.521 290.877 337.747 292.964C343.166 296.317 348.309 299.552 353.521 303.132C358.016 306.532 362.23 310.29 366.122 314.371C370.695 317.82 375.681 320.679 380.964 322.881C385.97 324.932 391.371 325.833 396.769 325.518C402.168 325.203 407.428 323.68 412.164 321.061C421.025 316.618 438.608 314.496 431.83 301.515C428.646 295.419 426.323 295.334 420.184 293.036C415.407 291.248 412.838 287.157 416.304 282.524C419.752 277.915 424.953 275.52 427.945 270.148C431.758 263.302 434.62 255.849 437.975 248.774C440.73 243.576 444.261 238.832 448.445 234.705C451.891 230.354 455.028 225.765 457.834 220.972C464.385 211.21 473.936 200.207 485.698 197.367C499.472 194.041 513.225 195.413 525.158 186.589C529.736 183.592 533.345 179.321 535.542 174.298C537.885 169.241 540.885 164.517 544.464 160.251C548.347 155.468 551.573 150.183 554.054 144.538C556.318 138.346 574.674 109.273 585.144 102.041C590.868 97.9814 597.359 95.1421 604.219 93.698C611.078 92.2538 618.16 92.2353 625.026 93.6437C637.06 95.8405 647.441 108.287 657.039 95.1571C661.282 90.8043 665.217 86.1591 668.814 81.2553C670.944 77.2118 674.443 66.5099 670.247 63.1351ZM436.338 196.345C436.157 204.568 430.728 212.017 427.303 219.245C422.951 228.427 414.521 235.594 408.488 243.734C403.612 250.115 399.602 257.116 396.56 264.554C395.09 268.223 391.436 273.458 391.839 277.56C392.393 283.196 398.556 283.941 401.491 287.848C408.044 296.571 394.296 293.563 390.169 293.244C381.44 292.568 381.265 287.137 377.15 280.319C372.207 272.13 363.295 267.266 355.761 261.641C351.499 259.03 347.532 255.961 343.931 252.49C340.29 248.037 341.834 244.31 342.555 238.624C343.592 234.366 344.026 229.982 343.843 225.603C342.666 221.839 340.958 218.263 338.771 214.985C336.477 210.744 333.055 207.147 331.014 202.794C328.933 198.355 330.082 193.315 327.708 189.417C325.286 185.44 321.672 184.328 320.995 179.054C320.619 176.125 321.238 169.245 325.302 169.679C327.937 169.961 330.092 176.32 332.03 178.111C336.034 181.809 338.51 180.562 343.507 179.329C353.754 176.719 364.391 176.017 374.891 177.257C383.957 178.433 395.712 185.862 396.354 172.413C396.752 164.07 394.794 155.584 385.674 159.478C379.599 162.072 367.635 168.206 361.473 162.314C357.595 158.606 361.942 156.901 365.703 152.94C368.55 150.432 371.051 147.554 373.14 144.383C375.294 140.364 375.302 135.262 379.009 132.02C382.061 129.351 386.237 129.871 386.966 125.509C386.713 123.771 386.281 122.064 385.677 120.416C385.252 117.462 385.712 114.449 387 111.758C387.999 109.204 390.505 102.679 394.391 105.585C396.488 107.153 395.797 117.243 395.554 119.344C394.931 124.725 392.925 125.402 397.363 129.642C399.847 124.645 403.863 120.58 408.82 118.043C412.919 116.354 420.885 113.294 421.726 119.316C422.28 123.278 416.306 130.302 413.158 132.121C409.132 134.446 406.052 132.768 408.94 137.383C411.173 140.95 417.096 142.998 419.874 146.684C422.874 150.666 425.45 155.246 428.018 159.471C434.509 170.609 437.415 183.487 436.338 196.345Z" fill="white"></path>
<path d="M128.477 329.525L67.9509 390.275L128.477 479.931H90.0012L45.0006 413.31L31.7254 426.634V479.931H0V329.525H31.7254V381.241L49.7257 363.174L83.4761 329.525H128.477Z" fill="white"></path>
<path d="M160.7 353.238H128.974V329.525H160.7V353.238ZM160.7 480.157H128.974V361.593H160.7V480.157Z" fill="white"></path>
<path d="M298.308 420.537V479.931H266.358V420.762C266.358 413.987 263.433 407.438 257.808 402.47C251.733 396.598 243.408 393.662 234.407 393.662C225.407 393.662 217.082 396.598 211.007 402.47C205.607 407.438 202.457 413.987 202.457 420.762V479.931H170.732V361.593H202.457V369.498C211.907 364.304 222.932 361.593 234.407 361.593C269.508 361.593 298.083 387.79 298.308 420.537Z" fill="white"></path>
<path d="M403.531 411.277C426.031 418.73 429.406 434.087 429.406 442.443C429.406 450.347 426.481 469.543 399.706 476.77C387.556 479.931 374.28 479.931 365.505 479.931C356.73 479.931 343.455 479.931 331.53 476.77C323.43 474.737 316.905 471.35 311.954 466.607C305.204 460.284 301.829 451.928 301.829 442.443H333.555C333.555 442.894 333.555 443.12 333.78 443.12C334.005 443.572 336.255 445.378 344.13 446.734C351.33 448.089 359.43 448.089 365.505 448.089C365.505 448.089 397.231 448.089 397.231 443.346C397.231 438.378 364.155 437.023 364.155 437.023C351.33 435.668 338.28 434.313 327.705 430.699C304.979 423.021 301.829 407.664 301.829 399.082C301.829 391.178 304.529 371.982 331.53 364.755C343.455 361.593 356.73 361.593 365.505 361.593C374.28 361.593 387.78 361.593 399.931 364.981C408.031 367.239 414.556 370.853 419.506 375.821C426.031 382.37 429.406 390.726 429.406 400.437H397.456C397.456 399.082 397.231 398.856 397.006 398.631C396.556 398.179 394.981 396.824 391.156 395.695C383.28 393.662 372.705 393.662 365.505 393.662C365.505 393.662 333.78 393.662 333.78 398.405C333.78 402.47 367.305 404.954 367.305 404.954C379.905 406.309 392.956 407.664 403.531 411.277Z" fill="white"></path>
<path d="M563.32 420.537V479.931H531.369V420.762C531.369 413.987 528.444 407.438 522.819 402.47C516.744 396.598 508.419 393.662 499.419 393.662C490.419 393.662 482.094 396.598 476.019 402.47C470.619 407.438 467.468 413.987 467.468 420.762V479.931H435.743V329.525H467.468V369.498C476.919 364.304 487.944 361.593 499.419 361.593C534.519 361.593 563.095 387.79 563.32 420.537Z" fill="white"></path>
<path d="M602.391 353.238H570.666V329.525H602.391V353.238ZM602.391 480.157H570.666V361.593H602.391V480.157Z" fill="white"></path>
<path d="M676.099 361.593C711.425 361.593 740 388.016 740 420.762C740 453.509 711.425 479.931 676.099 479.931C664.624 479.931 653.599 477.221 644.149 472.027V512H612.423V361.593H644.149V369.498C653.599 364.304 664.624 361.593 676.099 361.593ZM699.499 439.281C705.125 434.087 708.05 427.538 708.05 420.762C708.05 413.987 705.125 407.438 699.499 402.47C693.424 396.598 685.099 393.662 676.099 393.662C667.099 393.662 658.774 396.598 652.699 402.47C647.299 407.438 644.149 413.987 644.149 420.762C644.149 427.538 647.299 434.087 652.699 439.281C658.774 444.927 667.099 448.089 676.099 448.089C685.099 448.089 693.424 444.927 699.499 439.281Z" fill="white"></path>
</svg>